REM DIRINDEX 1\4,1\2\5,1\2\6,1\2\7,1\3\8,1\3\9,1\3\10,1\3\11
REM DIRNAME cjc108,folder01,folder02,folder03,folder04,folder05,folder06,folder07,folder08,folder09,folder10
TITLE ""
FILE "t_j_11.mp3" MP3
  TRACK 01 AUDIO
    TITLE "8:cjc108_1852"
    INDEX 01 00:00:00
  TRACK 02 AUDIO
    TITLE "0:"
    INDEX 01 00:02:40
  TRACK 03 AUDIO
    TITLE "9:cjc108_1853"
    INDEX 01 00:03:51
  TRACK 04 AUDIO
    TITLE "0:"
    INDEX 01 00:04:62
  TRACK 05 AUDIO
    TITLE "10:cjc108_1854"
    INDEX 01 00:04:68
  TRACK 06 AUDIO
    TITLE "0:"
    INDEX 01 00:06:04
  TRACK 07 AUDIO
    TITLE "9:cjc108_1855"
    INDEX 01 00:06:57
  TRACK 08 AUDIO
    TITLE "0:"
    INDEX 01 00:07:62
  TRACK 09 AUDIO
    TITLE "10:cjc108_1856"
    INDEX 01 00:07:68
  TRACK 10 AUDIO
    TITLE "0:"
    INDEX 01 00:09:02
  TRACK 11 AUDIO
    TITLE "9:cjc108_1857"
    INDEX 01 00:09:47
  TRACK 12 AUDIO
    TITLE "0:"
    INDEX 01 00:10:65
  TRACK 13 AUDIO
    TITLE "10:cjc108_1858"
    INDEX 01 00:10:70
  TRACK 14 AUDIO
    TITLE "0:"
    INDEX 01 00:13:28
  TRACK 15 AUDIO
    TITLE "9:cjc108_1859"
    INDEX 01 00:13:73
  TRACK 16 AUDIO
    TITLE "0:"
    INDEX 01 00:15:03
  TRACK 17 AUDIO
    TITLE "10:cjc108_1860"
    INDEX 01 00:15:07
  TRACK 18 AUDIO
    TITLE "0:"
    INDEX 01 00:16:10
  TRACK 19 AUDIO
    TITLE "11:cjc108_1861"
    INDEX 01 00:16:55
  TRACK 20 AUDIO
    TITLE "0:"
    INDEX 01 00:23:01
  TRACK 21 AUDIO
    TITLE "9:cjc108_1862"
    INDEX 01 00:24:53
  TRACK 22 AUDIO
    TITLE "0:"
    INDEX 01 00:26:01
  TRACK 23 AUDIO
    TITLE "10:cjc108_1863"
    INDEX 01 00:26:03
  TRACK 24 AUDIO
    TITLE "0:"
    INDEX 01 00:27:28
  TRACK 25 AUDIO
    TITLE "9:cjc108_1864"
    INDEX 01 00:28:04
  TRACK 26 AUDIO
    TITLE "0:"
    INDEX 01 00:29:25
  TRACK 27 AUDIO
    TITLE "10:cjc108_1865"
    INDEX 01 00:29:29
  TRACK 28 AUDIO
    TITLE "0:"
    INDEX 01 00:30:52
  TRACK 29 AUDIO
    TITLE "9:cjc108_1866"
    INDEX 01 00:31:27
  TRACK 30 AUDIO
    TITLE "0:"
    INDEX 01 00:32:50
  TRACK 31 AUDIO
    TITLE "10:cjc108_1867"
    INDEX 01 00:32:60
  TRACK 32 AUDIO
    TITLE "0:"
    INDEX 01 00:34:16
  TRACK 33 AUDIO
    TITLE "9:cjc108_1868"
    INDEX 01 00:34:63
  TRACK 34 AUDIO
    TITLE "0:"
    INDEX 01 00:36:05
  TRACK 35 AUDIO
    TITLE "10:cjc108_1869"
    INDEX 01 00:36:07
  TRACK 36 AUDIO
    TITLE "0:"
    INDEX 01 00:37:32
  TRACK 37 AUDIO
    TITLE "11:cjc108_1870"
    INDEX 01 00:38:06
  TRACK 38 AUDIO
    TITLE "0:"
    INDEX 01 00:44:63
  TRACK 39 AUDIO
    TITLE "9:cjc108_1871"
    INDEX 01 00:46:37
  TRACK 40 AUDIO
    TITLE "0:"
    INDEX 01 00:47:46
  TRACK 41 AUDIO
    TITLE "10:cjc108_1872"
    INDEX 01 00:47:50
  TRACK 42 AUDIO
    TITLE "0:"
    INDEX 01 00:50:17
  TRACK 43 AUDIO
    TITLE "11:cjc108_1873"
    INDEX 01 00:50:66
  TRACK 44 AUDIO
    TITLE "0:"
    INDEX 01 00:56:49
  TRACK 45 AUDIO
    TITLE "9:cjc108_1874"
    INDEX 01 00:58:26
  TRACK 46 AUDIO
    TITLE "0:"
    INDEX 01 00:59:49
  TRACK 47 AUDIO
    TITLE "10:cjc108_1875"
    INDEX 01 00:59:51
  TRACK 48 AUDIO
    TITLE "0:"
    INDEX 01 01:02:20
  TRACK 49 AUDIO
    TITLE "9:cjc108_1876"
    INDEX 01 01:02:69
  TRACK 50 AUDIO
    TITLE "0:"
    INDEX 01 01:04:13
  TRACK 51 AUDIO
    TITLE "10:cjc108_1877"
    INDEX 01 01:04:23
  TRACK 52 AUDIO
    TITLE "0:"
    INDEX 01 01:05:28
  TRACK 53 AUDIO
    TITLE "9:cjc108_1878"
    INDEX 01 01:06:06
  TRACK 54 AUDIO
    TITLE "0:"
    INDEX 01 01:07:64
  TRACK 55 AUDIO
    TITLE "10:cjc108_1879"
    INDEX 01 01:07:70
  TRACK 56 AUDIO
    TITLE "0:"
    INDEX 01 01:08:70
  TRACK 57 AUDIO
    TITLE "11:cjc108_1880"
    INDEX 01 01:09:50
  TRACK 58 AUDIO
    TITLE "0:"
    INDEX 01 01:15:13
  TRACK 59 AUDIO
    TITLE "9:cjc108_1881"
    INDEX 01 01:16:63
  TRACK 60 AUDIO
    TITLE "0:"
    INDEX 01 01:18:19
  TRACK 61 AUDIO
    TITLE "10:cjc108_1882"
    INDEX 01 01:18:33
  TRACK 62 AUDIO
    TITLE "0:"
    INDEX 01 01:20:00
  TRACK 63 AUDIO
    TITLE "9:cjc108_1883"
    INDEX 01 01:20:49
  TRACK 64 AUDIO
    TITLE "0:"
    INDEX 01 01:21:57
  TRACK 65 AUDIO
    TITLE "10:cjc108_1884"
    INDEX 01 01:21:59
  TRACK 66 AUDIO
    TITLE "0:"
    INDEX 01 01:23:20
  TRACK 67 AUDIO
    TITLE "11:cjc108_1885"
    INDEX 01 01:23:67
  TRACK 68 AUDIO
    TITLE "0:"
    INDEX 01 01:28:71
